<svg xmlns="http://www.w3.org/2000/svg" viewBox="0 0 128 128">
  <defs>
    <linearGradient id="grad1" x1="0%" y1="0%" x2="100%" y2="100%">
      <stop offset="0%" style="stop-color:#00D4FF;stop-opacity:1" />
      <stop offset="50%" style="stop-color:#0099FF;stop-opacity:1" />
      <stop offset="100%" style="stop-color:#6C63FF;stop-opacity:1" />
    </linearGradient>
    <linearGradient id="grad2" x1="0%" y1="100%" x2="100%" y2="0%">
      <stop offset="0%" style="stop-color:#6C63FF;stop-opacity:1" />
      <stop offset="100%" style="stop-color:#00D4FF;stop-opacity:1" />
    </linearGradient>
    <filter id="glow">
      <feGaussianBlur stdDeviation="2" result="coloredBlur"/>
      <feMerge>
        <feMergeNode in="coloredBlur"/>
        <feMergeNode in="SourceGraphic"/>
      </feMerge>
    </filter>
  </defs>

  <!-- Background circle -->
  <circle cx="64" cy="64" r="60" fill="#1a1a2e"/>
  <circle cx="64" cy="64" r="56" fill="none" stroke="url(#grad1)" stroke-width="2" opacity="0.5"/>

  <!-- Flutter-inspired wing shape with tech style -->
  <g filter="url(#glow)">
    <!-- Main wing/arrow shape -->
    <path d="M 40 30 L 90 64 L 40 98 L 40 70 L 65 64 L 40 58 Z"
          fill="url(#grad1)" opacity="0.9"/>

    <!-- Secondary layer for depth -->
    <path d="M 50 42 L 82 64 L 50 86 L 50 72 L 68 64 L 50 56 Z"
          fill="url(#grad2)" opacity="0.7"/>

    <!-- AI/Tech circuit nodes -->
    <circle cx="40" cy="30" r="4" fill="#00D4FF"/>
    <circle cx="40" cy="98" r="4" fill="#6C63FF"/>
    <circle cx="90" cy="64" r="5" fill="#00D4FF"/>

    <!-- Connection lines (circuit style) -->
    <line x1="40" y1="30" x2="25" y2="30" stroke="#00D4FF" stroke-width="2" opacity="0.6"/>
    <line x1="25" y1="30" x2="25" y2="98" stroke="#00D4FF" stroke-width="2" opacity="0.6"/>
    <line x1="25" y1="98" x2="40" y2="98" stroke="#6C63FF" stroke-width="2" opacity="0.6"/>

    <!-- Small tech dots -->
    <circle cx="25" cy="50" r="2" fill="#00D4FF" opacity="0.8"/>
    <circle cx="25" cy="78" r="2" fill="#6C63FF" opacity="0.8"/>
    <circle cx="95" cy="50" r="2" fill="#00D4FF" opacity="0.5"/>
    <circle cx="95" cy="78" r="2" fill="#6C63FF" opacity="0.5"/>

    <!-- Signal waves from tip -->
    <path d="M 95 58 Q 102 64 95 70" fill="none" stroke="#00D4FF" stroke-width="1.5" opacity="0.6"/>
    <path d="M 100 54 Q 110 64 100 74" fill="none" stroke="#00D4FF" stroke-width="1.5" opacity="0.4"/>
  </g>

  <!-- Inner glow ring -->
  <circle cx="64" cy="64" r="48" fill="none" stroke="url(#grad1)" stroke-width="1" opacity="0.3"/>
</svg>
